<?xml version="1.0" standalone="no"?>
<!DOCTYPE svg PUBLIC "-//W3C//DTD SVG 20010904//EN"
 "http://www.w3.org/TR/2001/REC-SVG-20010904/DTD/svg10.dtd">
<svg version="1.0" xmlns="http://www.w3.org/2000/svg"
 width="1072.000000pt" height="1072.000000pt" viewBox="0 0 1072.000000 1072.000000"
 preserveAspectRatio="xMidYMid meet">
<metadata>
Created by potrace 1.14, written by Peter Selinger 2001-2017
</metadata>
<g transform="translate(0.000000,1072.000000) scale(0.100000,-0.100000)"
fill="#000000" stroke="none">
<path d="M0 8935 l0 -1785 3613 0 c4005 0 3657 -6 3807 67 141 68 266 222 311
383 16 58 16 232 0 289 -7 25 -245 614 -528 1310 -283 696 -538 1323 -567
1393 l-51 127 -3292 1 -3293 0 0 -1785z"/>
<path d="M3875 5921 c-422 -50 -657 -525 -445 -896 65 -114 134 -166 570 -430
789 -479 1681 -841 2601 -1053 228 -53 528 -110 643 -122 219 -23 375 -111
484 -273 67 -102 96 -196 96 -317 1 -52 -5 -120 -13 -150 -49 -202 -209 -373
-418 -447 l-78 -28 -3657 -3 -3658 -2 0 -1100 0 -1100 5360 0 5360 0 0 1628 0
1628 -102 38 c-207 77 -417 187 -623 327 -468 318 -844 784 -1050 1304 -102
257 -194 403 -350 560 -229 231 -474 360 -800 423 -70 13 -310 16 -1970 17
-1039 2 -1917 -1 -1950 -4z"/>
</g>
</svg>
